<?xml version="1.0" encoding="utf-8"?>
<!-- Generator: Adobe Illustrator 28.3.0, SVG Export Plug-In . SVG Version: 6.00 Build 0)  -->
<svg version="1.1" id="Layer_1" xmlns="http://www.w3.org/2000/svg" xmlns:xlink="http://www.w3.org/1999/xlink" x="0px" y="0px"
	 viewBox="0 0 512 512" style="enable-background:new 0 0 512 512;" xml:space="preserve">
<style type="text/css">
	.st0{fill:#7EBD37;}
</style>
<path class="st0" d="M304,48c0-26.5-21.5-48-48-48s-48,21.5-48,48s21.5,48,48,48S304,74.5,304,48z M304,464c0-26.5-21.5-48-48-48
	s-48,21.5-48,48s21.5,48,48,48S304,490.5,304,464L304,464z M48,304c26.5,0,48-21.5,48-48s-21.5-48-48-48S0,229.5,0,256
	S21.5,304,48,304z M512,256c0-26.5-21.5-48-48-48s-48,21.5-48,48s21.5,48,48,48S512,282.5,512,256z M142.9,437
	c18.8-18.8,18.8-49.1,0-67.9s-49.1-18.8-67.9,0s-18.8,49.1,0,67.9S124.1,455.8,142.9,437z M142.9,142.8c19.3-18.2,20.2-48.6,2-67.9
	s-48.6-20.2-67.9-2c-0.7,0.7-1.4,1.4-2.1,2.1c-18.8,18.8-18.8,49.1,0,67.9s49.1,18.8,67.9,0V142.8z M369.1,437
	c18.8,18.8,49.1,18.8,67.9,0s18.8-49.1,0-67.9s-49.1-18.8-67.9,0S350.3,418.2,369.1,437z"/>
</svg>
