<?xml version="1.0" encoding="utf-8"?>
<!-- Generator: Adobe Illustrator 28.3.0, SVG Export Plug-In . SVG Version: 6.00 Build 0)  -->
<svg version="1.1" id="Layer_1" xmlns="http://www.w3.org/2000/svg" xmlns:xlink="http://www.w3.org/1999/xlink" x="0px" y="0px"
	 viewBox="0 0 384 512" style="enable-background:new 0 0 384 512;" xml:space="preserve">
<style type="text/css">
	.st0{fill:#FFFFFF;}
</style>
<path class="st0" d="M32,32C32,14.3,46.3,0,64,0h256c17.7,0,32,14.3,32,32s-14.3,32-32,32h-29.5l11.4,148.2
	c36.7,19.9,65.7,53.2,79.5,94.7l1,3c3.3,9.8,1.6,20.5-4.4,28.8S362.3,352,352,352H32c-10.3,0-19.9-4.9-26-13.3s-7.7-19.1-4.4-28.8
	l1-3c13.8-41.5,42.8-74.8,79.5-94.7L93.5,64H64C46.3,64,32,49.7,32,32z M160,384h64v96c0,17.7-14.3,32-32,32s-32-14.3-32-32V384z"/>
</svg>
