<?xml version="1.0" encoding="utf-8"?>
<!-- Generator: Adobe Illustrator 28.3.0, SVG Export Plug-In . SVG Version: 6.00 Build 0)  -->
<svg version="1.1" id="Layer_1" xmlns="http://www.w3.org/2000/svg" xmlns:xlink="http://www.w3.org/1999/xlink" x="0px" y="0px"
	 viewBox="0 0 40.97 48.7" style="enable-background:new 0 0 40.97 48.7;" xml:space="preserve">
<style type="text/css">
	.st0{fill:#7DBD42;}
</style>
<path class="st0" d="M3.86,45.62c0-14.12,0-28.27,0-42.3c0.27-0.17,0.35-0.24,0.43-0.25c7.25-0.96,7.37-0.86,7.37,6.38
	c0,2.34-0.05,4.68,0.03,7.01c0.08,2.31,1.2,3.62,3.69,3.59c3.37-0.05,6.74-0.07,10.1,0.07c2.06,0.09,2.53-0.84,2.48-2.67
	c-0.1-3.83,0.05-7.67-0.08-11.5c-0.08-2.14,0.63-3.21,2.85-3.03c0.19,0.02,0.37,0,0.56,0c4.66-0.11,4.66-0.11,4.66,4.43
	c-0.01,11.87-0.09,23.75,0.02,35.62c0.02,2.55-0.86,3.19-3.25,3.09c-4.45-0.18-4.74-0.23-4.77-3.2c-0.05-4.11-0.04-8.23-0.04-12.34
	c0-2.07-0.93-3.58-3.03-3.65c-4.27-0.16-8.55-0.05-13.22-0.05c0,5.24,0,10.35,0,15.47c0,3.71-0.03,3.76-3.74,3.69
	C6.63,45.94,5.31,46.22,3.86,45.62z"/>
</svg>
